<?xml version="1.0" encoding="UTF-8" standalone="no"?>
<svg
   xmlns:dc="http://purl.org/dc/elements/1.1/"
   xmlns:cc="http://creativecommons.org/ns#"
   xmlns:rdf="http://www.w3.org/1999/02/22-rdf-syntax-ns#"
   xmlns:svg="http://www.w3.org/2000/svg"
   xmlns="http://www.w3.org/2000/svg"
   version="1.1"
   id="svg7416"
   viewBox="0 0 85 54"
   height="54mm"
   width="85mm">
  <defs
     id="defs3" />
  <metadata
     id="metadata7420">
    <rdf:RDF>
      <cc:Work
         rdf:about="">
        <dc:format>image/svg+xml</dc:format>
        <dc:type
           rdf:resource="http://purl.org/dc/dcmitype/StillImage" />
        <dc:title></dc:title>
      </cc:Work>
    </rdf:RDF>
  </metadata>
  <g
     id="layer1">
    <ellipse
       transform="matrix(-0.91055698,-0.41338358,-0.43411496,0.90085748,0,0)"
       ry="3.5780017"
       rx="3.538589"
       cy="18.011503"
       cx="-57.534962"
       id="ellipse4562"
       style="opacity:1;fill:#22757c;fill-opacity:0.99607843;fill-rule:nonzero;stroke:none;stroke-width:22.10000038;stroke-linecap:butt;stroke-linejoin:round;stroke-miterlimit:4;stroke-dasharray:none;stroke-opacity:1" />
    <ellipse
       style="opacity:1;fill:#22757c;fill-opacity:0.99607843;fill-rule:nonzero;stroke:none;stroke-width:22.10000038;stroke-linecap:butt;stroke-linejoin:round;stroke-miterlimit:4;stroke-dasharray:none;stroke-opacity:1"
       id="ellipse4558"
       cx="-9.1188736"
       cy="40.450058"
       rx="3.538589"
       ry="3.5780017"
       transform="matrix(0.91055698,-0.41338358,0.43411496,0.90085748,0,0)" />
    <g
       style="fill:#4e5e74;fill-opacity:1"
       transform="matrix(0.00450349,0.27363369,0.45679119,-0.00784843,-2.2865437,32.113979)"
       id="g4519">
      <rect
         style="opacity:1;fill:#4e5e74;fill-opacity:1;fill-rule:nonzero;stroke:none;stroke-width:1.3594557;stroke-linecap:round;stroke-linejoin:round;stroke-miterlimit:4;stroke-dasharray:none;stroke-opacity:1"
         id="rect4521"
         width="12.818753"
         height="35.057789"
         x="27.354977"
         y="66.744965"
         ry="5.5934334" />
      <path
         style="fill:#4e5e74;fill-opacity:1;fill-rule:evenodd;stroke:#1e232d;stroke-width:1.06799996;stroke-linecap:round;stroke-linejoin:miter;stroke-miterlimit:4;stroke-dasharray:none;stroke-opacity:1"
         d="m 27.953232,74.113506 c 1.729364,1.039646 3.744329,1.598693 5.76214,1.598692 2.017808,-10e-7 4.032769,-0.559048 5.76213,-1.598692"
         id="path4523" />
      <path
         id="path4525"
         d="m 27.953232,79.473419 c 1.729364,1.039646 3.744329,1.598693 5.76214,1.598692 2.017808,-1e-6 4.032769,-0.559048 5.76213,-1.598692"
         style="fill:#4e5e74;fill-opacity:1;fill-rule:evenodd;stroke:#1e232d;stroke-width:1.06799996;stroke-linecap:round;stroke-linejoin:miter;stroke-miterlimit:4;stroke-dasharray:none;stroke-opacity:1" />
      <path
         style="fill:#4e5e74;fill-opacity:1;fill-rule:evenodd;stroke:#1e232d;stroke-width:1.06799996;stroke-linecap:round;stroke-linejoin:miter;stroke-miterlimit:4;stroke-dasharray:none;stroke-opacity:1"
         d="m 27.953232,84.833332 c 1.729364,1.039646 3.744329,1.598693 5.76214,1.598692 2.017808,-10e-7 4.032769,-0.559048 5.76213,-1.598692"
         id="path4527" />
      <path
         id="path4529"
         d="m 27.953232,90.193246 c 1.729364,1.039645 3.744329,1.598692 5.76214,1.598691 2.017808,-10e-7 4.032769,-0.559048 5.76213,-1.598691"
         style="fill:#4e5e74;fill-opacity:1;fill-rule:evenodd;stroke:#1e232d;stroke-width:1.06799996;stroke-linecap:round;stroke-linejoin:miter;stroke-miterlimit:4;stroke-dasharray:none;stroke-opacity:1" />
      <path
         style="fill:#4e5e74;fill-opacity:1;fill-rule:evenodd;stroke:#1e232d;stroke-width:1.06799996;stroke-linecap:round;stroke-linejoin:miter;stroke-miterlimit:4;stroke-dasharray:none;stroke-opacity:1"
         d="m 27.953232,95.553159 c 1.729364,1.039646 3.744329,1.598693 5.76214,1.598692 2.017808,-10e-7 4.032769,-0.559048 5.76213,-1.598692"
         id="path4531" />
    </g>
    <g
       style="fill:#4e5e74;fill-opacity:1"
       id="g4493"
       transform="matrix(-0.00450349,0.27363369,-0.45679119,-0.00784843,56.734455,32.113979)">
      <rect
         ry="5.5934334"
         y="66.744965"
         x="27.354977"
         height="35.057789"
         width="12.818753"
         id="rect4495"
         style="opacity:1;fill:#4e5e74;fill-opacity:1;fill-rule:nonzero;stroke:none;stroke-width:1.3594557;stroke-linecap:round;stroke-linejoin:round;stroke-miterlimit:4;stroke-dasharray:none;stroke-opacity:1" />
      <path
         id="path4497"
         d="m 27.953232,74.113506 c 1.729364,1.039646 3.744329,1.598693 5.76214,1.598692 2.017808,-10e-7 4.032769,-0.559048 5.76213,-1.598692"
         style="fill:#4e5e74;fill-opacity:1;fill-rule:evenodd;stroke:#1e232d;stroke-width:1.06799996;stroke-linecap:round;stroke-linejoin:miter;stroke-miterlimit:4;stroke-dasharray:none;stroke-opacity:1" />
      <path
         style="fill:#4e5e74;fill-opacity:1;fill-rule:evenodd;stroke:#1e232d;stroke-width:1.06799996;stroke-linecap:round;stroke-linejoin:miter;stroke-miterlimit:4;stroke-dasharray:none;stroke-opacity:1"
         d="m 27.953232,79.473419 c 1.729364,1.039646 3.744329,1.598693 5.76214,1.598692 2.017808,-1e-6 4.032769,-0.559048 5.76213,-1.598692"
         id="path4499" />
      <path
         id="path4501"
         d="m 27.953232,84.833332 c 1.729364,1.039646 3.744329,1.598693 5.76214,1.598692 2.017808,-10e-7 4.032769,-0.559048 5.76213,-1.598692"
         style="fill:#4e5e74;fill-opacity:1;fill-rule:evenodd;stroke:#1e232d;stroke-width:1.06799996;stroke-linecap:round;stroke-linejoin:miter;stroke-miterlimit:4;stroke-dasharray:none;stroke-opacity:1" />
      <path
         style="fill:#4e5e74;fill-opacity:1;fill-rule:evenodd;stroke:#1e232d;stroke-width:1.06799996;stroke-linecap:round;stroke-linejoin:miter;stroke-miterlimit:4;stroke-dasharray:none;stroke-opacity:1"
         d="m 27.953232,90.193246 c 1.729364,1.039645 3.744329,1.598692 5.76214,1.598691 2.017808,-10e-7 4.032769,-0.559048 5.76213,-1.598691"
         id="path4503" />
      <path
         id="path4505"
         d="m 27.953232,95.553159 c 1.729364,1.039646 3.744329,1.598693 5.76214,1.598692 2.017808,-10e-7 4.032769,-0.559048 5.76213,-1.598692"
         style="fill:#4e5e74;fill-opacity:1;fill-rule:evenodd;stroke:#1e232d;stroke-width:1.06799996;stroke-linecap:round;stroke-linejoin:miter;stroke-miterlimit:4;stroke-dasharray:none;stroke-opacity:1" />
    </g>
    <g
       style="fill:#4e5e74;fill-opacity:1"
       transform="matrix(0.32604597,0,0,0.460685,16.478413,-1.239464)"
       id="g4456">
      <path
         style="opacity:1;fill:#4e5e74;fill-opacity:1;fill-rule:nonzero;stroke:none;stroke-width:1.06799996;stroke-linecap:round;stroke-linejoin:round;stroke-miterlimit:4;stroke-dasharray:none;stroke-opacity:1"
         d="m 6.7175147,81.32412 52.6794563,0 c 0.391737,0 0.785866,0.323368 0.707107,0.707106 l -6,29.234014 c -0.07876,0.38374 -0.31537,0.70711 -0.707107,0.70711 l -40.679456,0 c -0.391737,0 -0.628348,-0.32337 -0.707107,-0.70711 L 6.0104079,82.031226 C 5.9316493,81.647488 6.3257775,81.32412 6.7175147,81.32412 Z"
         id="rect4382" />
    </g>
    <ellipse
       style="opacity:1;fill:none;fill-opacity:1;fill-rule:nonzero;stroke:#2d3644;stroke-width:0.25962767;stroke-linecap:round;stroke-linejoin:round;stroke-miterlimit:4;stroke-dasharray:none;stroke-opacity:1"
       id="ellipse4418"
       cx="19.866543"
       cy="37.910267"
       rx="0.73800421"
       ry="0.74835473" />
    <ellipse
       ry="0.72927564"
       rx="0.73952156"
       cy="41.755524"
       cx="20.38896"
       id="ellipse4420"
       style="opacity:1;fill:none;fill-opacity:1;fill-rule:nonzero;stroke:#2d3644;stroke-width:0.25656012;stroke-linecap:round;stroke-linejoin:round;stroke-miterlimit:4;stroke-dasharray:none;stroke-opacity:1" />
    <ellipse
       style="opacity:1;fill:none;fill-opacity:1;fill-rule:nonzero;stroke:#2d3644;stroke-width:0.24737668;stroke-linecap:round;stroke-linejoin:round;stroke-miterlimit:4;stroke-dasharray:none;stroke-opacity:1"
       id="ellipse4422"
       cx="21.505955"
       cy="49.095963"
       rx="0.72387379"
       ry="0.69265831" />
    <ellipse
       style="opacity:1;fill:none;fill-opacity:1;fill-rule:nonzero;stroke:#2d3644;stroke-width:0.25656012;stroke-linecap:round;stroke-linejoin:round;stroke-miterlimit:4;stroke-dasharray:none;stroke-opacity:1"
       id="ellipse4424"
       cx="20.986107"
       cy="45.446381"
       rx="0.73952156"
       ry="0.72927564" />
    <g
       style="opacity:0.97000002;fill:#4e5e74;fill-opacity:1"
       transform="matrix(0.39385319,0,0,0.41500738,13.958395,-4.5281923)"
       id="g4344">
      <rect
         ry="5.5934334"
         y="66.744965"
         x="27.354977"
         height="35.057789"
         width="12.818753"
         id="rect4290"
         style="opacity:1;fill:#4e5e74;fill-opacity:1;fill-rule:nonzero;stroke:none;stroke-width:1.3594557;stroke-linecap:round;stroke-linejoin:round;stroke-miterlimit:4;stroke-dasharray:none;stroke-opacity:1" />
      <path
         id="path4292"
         d="m 27.953232,74.113506 c 1.729364,1.039646 3.744329,1.598693 5.76214,1.598692 2.017808,-10e-7 4.032769,-0.559048 5.76213,-1.598692"
         style="fill:#4e5e74;fill-opacity:1;fill-rule:evenodd;stroke:#1e232d;stroke-width:1.06799996;stroke-linecap:round;stroke-linejoin:miter;stroke-miterlimit:4;stroke-dasharray:none;stroke-opacity:1" />
      <path
         style="fill:#4e5e74;fill-opacity:1;fill-rule:evenodd;stroke:#1e232d;stroke-width:1.06799996;stroke-linecap:round;stroke-linejoin:miter;stroke-miterlimit:4;stroke-dasharray:none;stroke-opacity:1"
         d="m 27.953232,79.473419 c 1.729364,1.039646 3.744329,1.598693 5.76214,1.598692 2.017808,-1e-6 4.032769,-0.559048 5.76213,-1.598692"
         id="path4294" />
      <path
         id="path4296"
         d="m 27.953232,84.833332 c 1.729364,1.039646 3.744329,1.598693 5.76214,1.598692 2.017808,-10e-7 4.032769,-0.559048 5.76213,-1.598692"
         style="fill:#4e5e74;fill-opacity:1;fill-rule:evenodd;stroke:#1e232d;stroke-width:1.06799996;stroke-linecap:round;stroke-linejoin:miter;stroke-miterlimit:4;stroke-dasharray:none;stroke-opacity:1" />
      <path
         style="fill:#4e5e74;fill-opacity:1;fill-rule:evenodd;stroke:#1e232d;stroke-width:1.06799996;stroke-linecap:round;stroke-linejoin:miter;stroke-miterlimit:4;stroke-dasharray:none;stroke-opacity:1"
         d="m 27.953232,90.193246 c 1.729364,1.039645 3.744329,1.598692 5.76214,1.598691 2.017808,-10e-7 4.032769,-0.559048 5.76213,-1.598691"
         id="path4298" />
      <path
         id="path4300"
         d="m 27.953232,95.553159 c 1.729364,1.039646 3.744329,1.598693 5.76214,1.598692 2.017808,-10e-7 4.032769,-0.559048 5.76213,-1.598692"
         style="fill:#4e5e74;fill-opacity:1;fill-rule:evenodd;stroke:#1e232d;stroke-width:1.06799996;stroke-linecap:round;stroke-linejoin:miter;stroke-miterlimit:4;stroke-dasharray:none;stroke-opacity:1" />
    </g>
    <ellipse
       ry="10.736172"
       rx="11.421394"
       cy="17.937622"
       cx="26.610331"
       id="path4700-9"
       style="opacity:1;fill:#4e5e74;fill-opacity:1;fill-rule:nonzero;stroke:none;stroke-width:22.10000038;stroke-linecap:butt;stroke-linejoin:round;stroke-miterlimit:4;stroke-dasharray:none;stroke-opacity:1" />
    <path
       id="rect4702-0"
       d="m 35.314216,5.0067949 c 0.646416,0.2543434 0.843019,0.9380275 0.701472,1.6102717 L 35.133601,10.806496 C 34.992055,11.478738 33.416733,11.554187 32.77031,11.299842 32.123888,11.0455 30.710165,9.9648724 31.104352,9.3990351 l 2.577687,-3.7001759 c 0.39418,-0.5658374 0.985754,-0.9464063 1.632177,-0.6920643 z"
       style="opacity:1;fill:#4e5e74;fill-opacity:1;fill-rule:nonzero;stroke:none;stroke-width:22.10000038;stroke-linecap:butt;stroke-linejoin:round;stroke-miterlimit:4;stroke-dasharray:none;stroke-opacity:1" />
    <path
       style="opacity:1;fill:#4e5e74;fill-opacity:1;fill-rule:nonzero;stroke:none;stroke-width:22.10000038;stroke-linecap:butt;stroke-linejoin:round;stroke-miterlimit:4;stroke-dasharray:none;stroke-opacity:1"
       d="m 17.415712,5.8193481 c -0.617023,0.2406616 -0.804676,0.8875687 -0.669571,1.5236484 l 0.841973,3.9640665 c 0.135098,0.636082 1.638793,0.70747 2.255817,0.466807 0.617024,-0.240659 1.966455,-1.263157 1.5902,-1.798556 L 18.973667,6.474184 C 18.597404,5.9387844 18.032744,5.5786878 17.415712,5.8193481 Z"
       id="path4705-8" />
    <ellipse
       transform="matrix(0.91700971,-0.39886487,0.32106727,0.94705639,0,0)"
       ry="2.5306952"
       rx="2.7269464"
       cy="11.335053"
       cx="14.40085"
       id="path4707-1"
       style="opacity:1;fill:#22767d;fill-opacity:0.99607843;fill-rule:nonzero;stroke:none;stroke-width:22.10000038;stroke-linecap:butt;stroke-linejoin:round;stroke-miterlimit:4;stroke-dasharray:none;stroke-opacity:1" />
    <ellipse
       style="opacity:1;fill:#22757c;fill-opacity:0.99607843;fill-rule:nonzero;stroke:none;stroke-width:22.10000038;stroke-linecap:butt;stroke-linejoin:round;stroke-miterlimit:4;stroke-dasharray:none;stroke-opacity:1"
       id="ellipse4709-3"
       cx="-35.629681"
       cy="-10.105244"
       rx="2.7768354"
       ry="2.5364165"
       transform="matrix(-0.92009351,-0.39169879,-0.32730067,0.94492025,0,0)" />
    <ellipse
       transform="matrix(0.94417113,-0.32945542,0.33202676,0.94326997,0,0)"
       ry="3.2790418"
       rx="2.8415728"
       cy="22.238026"
       cx="16.955744"
       id="path4711-1"
       style="opacity:1;fill:#ffffff;fill-opacity:1;fill-rule:nonzero;stroke:none;stroke-width:22.10000038;stroke-linecap:butt;stroke-linejoin:round;stroke-miterlimit:4;stroke-dasharray:none;stroke-opacity:1" />
    <ellipse
       style="opacity:1;fill:#ffffff;fill-opacity:1;fill-rule:nonzero;stroke:none;stroke-width:22.10000038;stroke-linecap:butt;stroke-linejoin:round;stroke-miterlimit:4;stroke-dasharray:none;stroke-opacity:1"
       id="ellipse4713-1"
       cx="28.346315"
       cy="15.54782"
       rx="2.6121008"
       ry="2.9318001"
       transform="matrix(0.9991123,-0.04212621,0.06119378,0.9981259,0,0)" />
    <ellipse
       style="opacity:1;fill:#22757c;fill-opacity:0.99607843;fill-rule:nonzero;stroke:none;stroke-width:22.10000038;stroke-linecap:butt;stroke-linejoin:round;stroke-miterlimit:4;stroke-dasharray:none;stroke-opacity:1"
       id="ellipse4797-0"
       cx="-23.549677"
       cy="14.74611"
       rx="2.2368104"
       ry="2.3832936"
       transform="matrix(-0.40527119,-0.91419651,0.94301765,-0.33274272,0,0)" />
    <ellipse
       ry="1.1086265"
       rx="1.2563535"
       cy="16.265528"
       cx="22.479034"
       id="path4809-3"
       style="opacity:1;fill:#ffffff;fill-opacity:1;fill-rule:nonzero;stroke:none;stroke-width:1.44700003;stroke-linecap:round;stroke-linejoin:round;stroke-miterlimit:4;stroke-dasharray:none;stroke-opacity:1" />
    <ellipse
       style="opacity:1;fill:#22747b;fill-opacity:1;fill-rule:nonzero;stroke:none;stroke-width:22.10000038;stroke-linecap:butt;stroke-linejoin:round;stroke-miterlimit:4;stroke-dasharray:none;stroke-opacity:1"
       id="ellipse4797-1-4"
       cx="-24.93638"
       cy="19.651772"
       rx="1.9353489"
       ry="2.0493362"
       transform="matrix(-0.42666725,-0.90440868,0.93225012,-0.36181446,0,0)" />
    <ellipse
       transform="matrix(0.99960547,-0.02808739,0.02690546,0.99963798,0,0)"
       style="opacity:1;fill:#ffffff;fill-opacity:1;fill-rule:nonzero;stroke:none;stroke-width:1.44700003;stroke-linecap:round;stroke-linejoin:round;stroke-miterlimit:4;stroke-dasharray:none;stroke-opacity:1"
       id="ellipse4835-0"
       cx="27.84866"
       cy="16.074675"
       rx="1.1421584"
       ry="1.0502609" />
    <path
       id="path4857-3"
       d="m 15.536797,19.883789 c 0,0 4.559487,2.929747 10.67918,2.480347 7.50088,-0.550826 11.353662,-5.704796 11.353662,-5.704796"
       style="fill:none;fill-rule:evenodd;stroke:#2d3644;stroke-width:0.47228959px;stroke-linecap:round;stroke-linejoin:round;stroke-opacity:1" />
    <ellipse
       ry="0.67101073"
       rx="0.68528366"
       cy="18.939678"
       cx="17.177744"
       id="path4859-9"
       style="opacity:1;fill:none;fill-opacity:1;fill-rule:nonzero;stroke:#2d3644;stroke-width:0.23690146;stroke-linecap:round;stroke-linejoin:round;stroke-miterlimit:4;stroke-dasharray:none;stroke-opacity:1" />
    <ellipse
       ry="0.57505924"
       rx="0.60320139"
       style="opacity:1;fill:none;fill-opacity:1;fill-rule:nonzero;stroke:#2d3644;stroke-width:0.20575732;stroke-linecap:round;stroke-linejoin:round;stroke-miterlimit:4;stroke-dasharray:none;stroke-opacity:1"
       id="ellipse4861-1"
       cx="23.213373"
       cy="20.853588" />
    <ellipse
       ry="0.72406507"
       rx="0.74903613"
       cy="16.328024"
       cx="35.992603"
       id="ellipse4872-9"
       style="opacity:1;fill:none;fill-opacity:1;fill-rule:nonzero;stroke:#2d3644;stroke-width:0.25728112;stroke-linecap:round;stroke-linejoin:round;stroke-miterlimit:4;stroke-dasharray:none;stroke-opacity:1" />
    <ellipse
       transform="scale(-1,1)"
       ry="0.61899984"
       rx="0.6662997"
       style="opacity:1;fill:none;fill-opacity:1;fill-rule:nonzero;stroke:#2d3644;stroke-width:0.22436124;stroke-linecap:round;stroke-linejoin:round;stroke-miterlimit:4;stroke-dasharray:none;stroke-opacity:1"
       id="circle4883-6"
       cx="-30.486908"
       cy="19.793419" />
    <path
       id="path4906-9"
       d="m 24.710855,22.427591 c 2.2775,1.635315 4.139992,0.594938 4.733268,-0.691568"
       style="fill:none;fill-rule:evenodd;stroke:#1e232d;stroke-width:0.79899478;stroke-linecap:round;stroke-linejoin:miter;stroke-miterlimit:4;stroke-dasharray:none;stroke-opacity:1" />
    <g
       id="flowRoot4566"
       style="font-style:normal;font-variant:normal;font-weight:bold;font-stretch:normal;font-size:27.5px;line-height:125%;font-family:sans-serif;-inkscape-font-specification:'sans-serif, Bold';text-align:center;letter-spacing:0px;word-spacing:0px;writing-mode:lr-tb;text-anchor:middle;fill:#22757c;fill-opacity:0.99607843;stroke:none;stroke-width:0.86042488;stroke-linecap:round;stroke-linejoin:round;stroke-miterlimit:4;stroke-dasharray:none;stroke-opacity:1"
       transform="matrix(1.1311152,-0.13029713,0.11136609,1.3233923,-57.406833,-32.43949)">
      <path
         style="fill:#22757c;fill-opacity:0.99607843;stroke:none;stroke-width:0.68936628;stroke-miterlimit:4;stroke-dasharray:none;stroke-opacity:0.99215686"
         id="path4575"
         d="m 82.990052,39.848422 4.198046,0.251311 6.726229,10.036179 -0.913451,-12.349562 5.348786,0.179564 -0.169905,20.300106 -3.780387,-0.07382 -7.241597,-10.898977 0.317081,10.529494 -4.901124,0 z" />
    </g>
    <g
       id="flowRoot4593"
       style="font-style:normal;font-variant:normal;font-weight:bold;font-stretch:normal;font-size:27.5px;line-height:125%;font-family:sans-serif;-inkscape-font-specification:'sans-serif, Bold';text-align:center;letter-spacing:0px;word-spacing:0px;writing-mode:lr-tb;text-anchor:middle;fill:#4e5e74;fill-opacity:1;stroke:none;stroke-width:1px;stroke-linecap:butt;stroke-linejoin:miter;stroke-opacity:1"
       transform="matrix(1.2394448,0.15454814,-0.16643473,1.4501212,-99.989349,-58.126074)">
      <path
         id="path4626"
         style="fill:#4e5e74;fill-opacity:1"
         d="m 137.25216,38.936318 7.53178,-0.07332 c 2.55111,-0.02483 4.50724,0.568441 5.86792,1.705322 1.36963,1.127929 2.05444,2.739257 2.05444,4.833984 0,2.103679 -0.64366,3.256891 -2.01329,4.393772 -1.36068,1.12793 -3.31823,1.611893 -5.86792,1.691895 l -3.60321,0.113059 0.15141,7.309575 -5.16968,0 z m 4.12113,3.673014 -0.0122,5.508135 2.87236,0.09123 c 1.00196,0.03182 1.77693,-0.241699 2.323,-0.725098 0.54606,-0.49235 0.81909,-1.186116 0.81909,-2.081299 0,-0.895182 -0.27303,-1.584472 -0.81909,-2.067871 -0.54607,-0.483399 -1.3204,-0.725098 -2.323,-0.725098 z" />
    </g>
  </g>
</svg>
